<svg xmlns="http://www.w3.org/2000/svg" viewBox="0 0 1600 720" preserveAspectRatio="xMidYMid slice">
  <defs>
    <linearGradient id="sky" x1="0" x2="0" y1="0" y2="1"><stop offset="0" stop-color="#274d77"/><stop offset=".55" stop-color="#132943"/><stop offset="1" stop-color="#06152a"/></linearGradient>
    <linearGradient id="grass" x1="0" x2="0" y1="0" y2="1"><stop offset="0" stop-color="#173c31"/><stop offset="1" stop-color="#071b17"/></linearGradient>
    <filter id="blur"><feGaussianBlur stdDeviation="2"/></filter>
  </defs>
  <rect width="1600" height="720" fill="url(#sky)"/>
  <circle cx="1230" cy="130" r="68" fill="#ffc36b" opacity=".16" filter="url(#blur)"/>
  <g opacity=".5"><path d="M0 455c180-80 320-70 480-30s310 70 520 5 395-50 600 35v255H0z" fill="url(#grass)"/></g>
  <g transform="translate(750 215)">
    <rect x="0" y="180" width="560" height="180" fill="#13233b"/>
    <rect x="25" y="155" width="510" height="35" fill="#1e3556"/>
    <rect x="250" y="80" width="60" height="100" fill="#172941"/>
    <path d="M280 0l35 80h-70z" fill="#0d1b30"/>
    <rect x="276" y="-45" width="8" height="45" fill="#0d1b30"/>
    <g fill="#ffd58a" opacity=".8">
      <rect x="45" y="210" width="34" height="44"/><rect x="120" y="210" width="34" height="44"/><rect x="195" y="210" width="34" height="44"/><rect x="330" y="210" width="34" height="44"/><rect x="405" y="210" width="34" height="44"/><rect x="480" y="210" width="34" height="44"/>
      <rect x="45" y="285" width="34" height="44"/><rect x="120" y="285" width="34" height="44"/><rect x="195" y="285" width="34" height="44"/><rect x="330" y="285" width="34" height="44"/><rect x="405" y="285" width="34" height="44"/><rect x="480" y="285" width="34" height="44"/>
    </g>
  </g>
  <g opacity=".65" stroke="#0a1628" stroke-width="10" fill="none"><path d="M80 500c80-180 170-260 280-330"/><path d="M170 470c-10-120 20-240 90-350"/><path d="M140 350c80 10 145 45 210 105"/><path d="M70 270c110 20 190 70 250 150"/></g>
  <rect width="1600" height="720" fill="#000" opacity=".35"/>
  <rect width="900" height="720" fill="url(#fade)"/>
</svg>
